<svg width="20" height="19" viewBox="0 0 20 19" fill="none" xmlns="http://www.w3.org/2000/svg">
<path d="M7.92804 0.988794C8.70073 -0.329172 10.606 -0.32917 11.3787 0.988796L13.1046 3.93254C13.3865 4.41351 13.8565 4.75494 14.4011 4.87449L17.734 5.6062C19.2263 5.9338 19.815 7.74586 18.8004 8.888L16.534 11.439C16.1637 11.8558 15.9842 12.4083 16.0388 12.9632L16.3728 16.3591C16.5224 17.8796 14.981 18.9995 13.5812 18.3874L10.4547 17.0203C9.94382 16.7969 9.36294 16.7969 8.85211 17.0203L5.72558 18.3874C4.32578 18.9995 2.78435 17.8795 2.93392 16.3591L3.26797 12.9632C3.32255 12.4083 3.14305 11.8558 2.77276 11.439L0.506403 8.888C-0.508283 7.74585 0.0804927 5.9338 1.57273 5.6062L4.90571 4.87449C5.45027 4.75494 5.92022 4.41351 6.20219 3.93254L7.92804 0.988794Z" fill="#FFCE22"/>
</svg>
